<svg version="1.1" id="Layer_1" xmlns="http://www.w3.org/2000/svg" xmlns:xlink="http://www.w3.org/1999/xlink" x="0px" y="0px"
	 width="100%" viewBox="0 0 800 533" enable-background="new 0 0 800 533" xml:space="preserve">
<path fill="#EB2939" opacity="1.000000" stroke="none" 
	d="
M640.000000,534.000000 
	C427.082611,534.000000 214.165253,534.000000 1.000000,534.000000 
	C1.000000,384.307587 1.000000,234.615051 1.353296,84.415565 
	C2.546347,84.442719 3.409740,84.943253 4.222526,85.515648 
	C213.466934,232.872986 422.709167,380.233398 631.934448,527.617859 
	C634.732910,529.589172 637.316284,531.865845 640.000000,534.000000 
z"/>
<path fill="#EB2939" opacity="1.000000" stroke="none" 
	d="
M162.000000,0.999999 
	C374.917297,1.000000 587.834595,1.000000 801.000000,1.000000 
	C801.000000,150.692398 801.000000,300.384949 800.663818,450.471252 
	C799.507019,450.296143 798.682861,449.732239 797.866272,449.157593 
	C588.604492,301.901367 379.341888,154.646194 170.095535,7.367951 
	C167.291916,5.394625 164.693954,3.129128 162.000000,0.999999 
z"/>
<path fill="#FFFFFF" opacity="1.000000" stroke="none" 
	d="
M161.531342,0.999999 
	C164.693954,3.129128 167.291916,5.394625 170.095535,7.367951 
	C379.341888,154.646194 588.604492,301.901367 797.866272,449.157593 
	C798.682861,449.732239 799.507019,450.296143 800.663818,450.932526 
	C801.000000,478.616974 801.000000,506.233978 801.000000,534.000000 
	C747.645874,534.000000 694.291565,534.000000 640.468628,534.000000 
	C637.316284,531.865845 634.732910,529.589172 631.934448,527.617859 
	C422.709167,380.233398 213.466934,232.872986 4.222526,85.515648 
	C3.409740,84.943253 2.546347,84.442719 1.353296,83.954315 
	C1.000000,56.383022 1.000000,28.766043 1.000000,1.000000 
	C54.354137,1.000000 107.708412,1.000000 161.531342,0.999999 
M359.210846,264.277557 
	C364.548004,268.164795 369.885162,272.052063 375.131958,275.873474 
	C369.872070,292.145752 364.806580,307.816711 359.741058,323.487671 
	C373.032928,314.968018 385.466187,306.046204 397.762482,296.939423 
	C400.140228,295.178436 401.739319,294.951904 404.197449,296.855133 
	C410.647278,301.848999 417.346344,306.521240 423.954865,311.309570 
	C429.790710,315.538055 435.638367,319.750214 442.726135,324.868958 
	C437.140167,307.613251 432.040070,291.858429 426.875824,275.905396 
	C440.418152,266.052704 453.775299,256.334747 467.132446,246.616806 
	C467.001251,246.262573 466.870056,245.908325 466.738861,245.554077 
	C465.120087,245.554077 463.501312,245.554092 461.882538,245.554077 
	C448.550446,245.553986 435.215210,245.393311 421.888214,245.653458 
	C417.980621,245.729736 416.406494,244.372345 415.301666,240.759125 
	C411.364044,227.881516 407.088867,215.106949 402.916168,202.301636 
	C402.447968,200.864792 401.818390,199.480560 400.832672,196.977539 
	C395.945282,211.995895 391.225861,225.656387 387.140259,239.503891 
	C385.686157,244.432358 383.461792,245.847748 378.438507,245.688965 
	C365.619202,245.283813 352.778503,245.554077 339.946381,245.554108 
	C338.352509,245.554108 336.758636,245.554092 334.798096,245.554092 
	C335.317413,246.510391 335.400513,246.891235 335.636169,247.064346 
	C343.285980,252.683685 350.950531,258.283020 359.210846,264.277557 
z"/>
<path fill="#0272CE" opacity="1.000000" stroke="none" 
	d="
M358.911865,264.081421 
	C350.950531,258.283020 343.285980,252.683685 335.636169,247.064346 
	C335.400513,246.891235 335.317413,246.510391 334.798096,245.554092 
	C336.758636,245.554092 338.352509,245.554108 339.946381,245.554108 
	C352.778503,245.554077 365.619202,245.283813 378.438507,245.688965 
	C383.461792,245.847748 385.686157,244.432358 387.140259,239.503891 
	C391.225861,225.656387 395.945282,211.995895 400.832672,196.977539 
	C401.818390,199.480560 402.447968,200.864792 402.916168,202.301636 
	C407.088867,215.106949 411.364044,227.881516 415.301666,240.759125 
	C416.406494,244.372345 417.980621,245.729736 421.888214,245.653458 
	C435.215210,245.393311 448.550446,245.553986 461.882538,245.554077 
	C463.501312,245.554092 465.120087,245.554077 466.738861,245.554077 
	C466.870056,245.908325 467.001251,246.262573 467.132446,246.616806 
	C453.775299,256.334747 440.418152,266.052704 426.875824,275.905396 
	C432.040070,291.858429 437.140167,307.613251 442.726135,324.868958 
	C435.638367,319.750214 429.790710,315.538055 423.954865,311.309570 
	C417.346344,306.521240 410.647278,301.848999 404.197449,296.855133 
	C401.739319,294.951904 400.140228,295.178436 397.762482,296.939423 
	C385.466187,306.046204 373.032928,314.968018 359.741058,323.487671 
	C364.806580,307.816711 369.872070,292.145752 375.131958,275.873474 
	C369.885162,272.052063 364.548004,268.164795 358.911865,264.081421 
z"/>
</svg>