<svg version="1.1" id="Layer_1" xmlns="http://www.w3.org/2000/svg" xmlns:xlink="http://www.w3.org/1999/xlink" x="0px" y="0px"
	 width="100%" viewBox="0 0 710 710" enable-background="new 0 0 710 710" xml:space="preserve">
<path fill="#FFFFFF" opacity="1.000000" stroke="none" 
	d="
M469.000000,711.000000 
	C312.666656,711.000000 156.833328,711.000000 1.000000,711.000000 
	C1.000000,474.333344 1.000000,237.666672 1.000000,1.000000 
	C237.666672,1.000000 474.333344,1.000000 711.000000,1.000000 
	C711.000000,237.666672 711.000000,474.333344 711.000000,711.000000 
	C630.500000,711.000000 550.000000,711.000000 469.000000,711.000000 
M454.780945,601.276489 
	C494.966095,585.129578 529.272217,560.650330 557.066162,527.504761 
	C609.018616,465.549255 628.998535,394.146698 616.921936,314.365448 
	C607.220398,250.274063 576.904541,196.868744 527.507080,155.034027 
	C465.809296,102.782120 394.225983,82.997009 314.430817,95.061714 
	C248.633606,105.009972 194.279663,136.616104 152.121353,187.827881 
	C102.727524,247.829025 84.018387,317.300018 94.343376,394.085968 
	C101.307816,445.879791 122.803619,491.707428 157.591690,530.732178 
	C205.028931,583.946533 264.681183,613.863159 335.732880,619.663696 
	C376.391663,622.982971 416.085999,617.129517 454.780945,601.276489 
z"/>
<path fill="#77B3D5" opacity="1.000000" stroke="none" 
	d="
M454.434570,601.442993 
	C416.085999,617.129517 376.391663,622.982971 335.732880,619.663696 
	C264.681183,613.863159 205.028931,583.946533 157.591690,530.732178 
	C122.803619,491.707428 101.307816,445.879791 94.343376,394.085968 
	C84.018387,317.300018 102.727524,247.829025 152.121353,187.827881 
	C194.279663,136.616104 248.633606,105.009972 314.430817,95.061714 
	C394.225983,82.997009 465.809296,102.782120 527.507080,155.034027 
	C576.904541,196.868744 607.220398,250.274063 616.921936,314.365448 
	C628.998535,394.146698 609.018616,465.549255 557.066162,527.504761 
	C529.272217,560.650330 494.966095,585.129578 454.434570,601.442993 
M459.140320,214.908554 
	C456.840454,216.390671 454.540558,217.872772 452.143463,218.505814 
	C451.656189,211.451797 448.925629,208.594757 442.050690,208.087646 
	C439.894653,207.928589 437.722351,207.998764 435.558167,207.939285 
	C421.545013,207.554153 416.251404,203.812820 411.309052,190.813431 
	C407.429565,180.609619 404.607147,179.174606 393.907257,181.832840 
	C389.876984,182.834122 385.847137,183.902679 381.757812,184.585938 
	C375.023285,185.711197 368.240845,185.846405 363.014099,180.535355 
	C351.248627,168.580154 345.780457,169.567276 334.066101,179.215408 
	C326.558899,185.398438 318.785248,186.612045 309.544708,182.381882 
	C298.897491,177.507767 289.088928,178.336472 282.849030,191.005325 
	C277.879425,201.095078 270.493988,208.079010 257.821747,207.157318 
	C251.834167,206.721817 247.084213,210.236618 245.206894,215.978027 
	C243.579605,220.954712 242.456039,226.280563 242.255844,231.496078 
	C241.958252,239.249588 238.929749,244.418076 231.582321,247.199448 
	C228.026413,248.545563 224.668381,250.445007 221.293442,252.231277 
	C216.445831,254.797012 215.097778,259.026733 216.336014,264.080597 
	C217.561127,269.080811 219.022964,274.029602 220.557159,278.945953 
	C222.752228,285.980072 221.140182,292.024963 216.236038,297.364563 
	C213.533447,300.307129 210.807236,303.235718 208.250961,306.303375 
	C203.340683,312.195984 203.632050,318.201111 208.958084,323.688293 
	C210.001892,324.763672 211.169968,325.728912 212.135757,326.867859 
	C219.178757,335.173615 224.998825,343.704803 218.067825,355.039581 
	C216.979218,356.819855 216.587936,359.105804 216.194931,361.217590 
	C214.896713,368.193573 218.169113,374.149689 224.728958,376.887543 
	C227.027557,377.846924 229.451645,378.511230 231.731384,379.509125 
	C236.370804,381.539886 239.854645,384.667816 240.345322,390.331055 
	C224.664459,422.860260 208.983612,455.389435 192.976257,488.595978 
	C213.488052,485.836639 232.955475,483.343231 252.370667,480.493896 
	C255.997086,479.961670 257.625366,480.528625 258.987671,484.099854 
	C265.447998,501.035248 272.217194,517.852844 278.889130,534.707397 
	C279.475616,536.188843 280.153992,537.633911 281.112213,539.837769 
	C282.353821,537.541321 283.231323,536.011719 284.023590,534.439087 
	C298.692261,505.323120 313.350739,476.202026 328.592499,447.394592 
	C333.195404,453.711243 339.473297,456.359894 347.172760,455.810669 
	C355.064514,455.247742 361.942535,452.521576 367.546539,446.684448 
	C373.360992,440.628204 376.477020,440.262054 384.356445,444.509918 
	C384.509399,444.773926 384.730347,444.954895 385.011383,444.989777 
	C385.011383,444.989777 384.948273,444.997406 385.022583,445.720703 
	C399.882263,475.758240 414.741943,505.795776 430.078552,536.797363 
	C438.655487,516.494263 446.760315,497.308685 454.844971,478.170898 
	C476.248779,481.645294 497.018280,485.016724 519.039001,488.591248 
	C500.278107,451.892090 482.125610,416.383026 464.465576,380.362793 
	C481.640656,375.034485 481.181915,370.577728 478.341522,357.307373 
	C475.983307,346.289948 476.729095,336.088135 485.942383,328.062714 
	C486.809814,327.307129 487.426880,326.270966 488.208191,325.408600 
	C492.623199,320.535706 493.308777,315.035065 490.529938,309.236572 
	C489.179047,306.417755 487.652924,303.385773 485.394562,301.351013 
	C476.179871,293.048737 474.890869,283.430237 479.625916,272.464172 
	C479.949493,271.714813 480.004852,270.850555 480.192749,270.041565 
	C482.321228,260.875580 479.800537,253.261002 471.251709,249.564621 
	C460.710602,245.006836 455.596344,236.758530 452.156525,226.239853 
	C454.803711,222.522476 457.450928,218.805099 460.505615,214.916061 
	C460.471100,214.685196 460.436584,214.454346 460.402039,214.223465 
	C460.209351,214.421524 460.016663,214.619598 459.140320,214.908554 
z"/>
<path fill="#EFC849" opacity="1.000000" stroke="none" 
	d="
M240.888062,389.911072 
	C239.854645,384.667816 236.370804,381.539886 231.731384,379.509125 
	C229.451645,378.511230 227.027557,377.846924 224.728958,376.887543 
	C218.169113,374.149689 214.896713,368.193573 216.194931,361.217590 
	C216.587936,359.105804 216.979218,356.819855 218.067825,355.039581 
	C224.998825,343.704803 219.178757,335.173615 212.135757,326.867859 
	C211.169968,325.728912 210.001892,324.763672 208.958084,323.688293 
	C203.632050,318.201111 203.340683,312.195984 208.250961,306.303375 
	C210.807236,303.235718 213.533447,300.307129 216.236038,297.364563 
	C221.140182,292.024963 222.752228,285.980072 220.557159,278.945953 
	C219.022964,274.029602 217.561127,269.080811 216.336014,264.080597 
	C215.097778,259.026733 216.445831,254.797012 221.293442,252.231277 
	C224.668381,250.445007 228.026413,248.545563 231.582321,247.199448 
	C238.929749,244.418076 241.958252,239.249588 242.255844,231.496078 
	C242.456039,226.280563 243.579605,220.954712 245.206894,215.978027 
	C247.084213,210.236618 251.834167,206.721817 257.821747,207.157318 
	C270.493988,208.079010 277.879425,201.095078 282.849030,191.005325 
	C289.088928,178.336472 298.897491,177.507767 309.544708,182.381882 
	C318.785248,186.612045 326.558899,185.398438 334.066101,179.215408 
	C345.780457,169.567276 351.248627,168.580154 363.014099,180.535355 
	C368.240845,185.846405 375.023285,185.711197 381.757812,184.585938 
	C385.847137,183.902679 389.876984,182.834122 393.907257,181.832840 
	C404.607147,179.174606 407.429565,180.609619 411.309052,190.813431 
	C416.251404,203.812820 421.545013,207.554153 435.558167,207.939285 
	C437.722351,207.998764 439.894653,207.928589 442.050690,208.087646 
	C448.925629,208.594757 451.656189,211.451797 451.989990,219.180420 
	C442.640778,226.714340 433.445068,233.573669 424.088257,240.095398 
	C416.216156,233.807861 409.044708,226.924530 400.687042,222.093307 
	C380.391296,210.361160 358.140106,207.469116 335.184113,211.111893 
	C312.982300,214.634995 294.079651,225.136673 278.555939,241.179932 
	C270.018188,250.003418 263.236816,260.302917 258.554626,271.846130 
	C248.516754,296.592804 247.696655,321.703461 256.987946,346.618927 
	C267.228851,374.080902 286.186554,393.731903 313.373657,405.173279 
	C331.423523,412.769409 350.204346,415.149963 369.390167,411.601257 
	C393.850403,407.077026 414.435211,395.567017 430.499420,376.125519 
	C444.640991,359.010895 452.339905,339.416748 453.879639,317.507019 
	C454.924438,302.640015 452.622742,288.049194 446.895966,274.163116 
	C443.423676,265.743744 440.171265,257.156525 433.076660,250.651031 
	C439.426605,242.508240 445.660217,234.682037 451.893829,226.855835 
	C455.596344,236.758530 460.710602,245.006836 471.251709,249.564621 
	C479.800537,253.261002 482.321228,260.875580 480.192749,270.041565 
	C480.004852,270.850555 479.949493,271.714813 479.625916,272.464172 
	C474.890869,283.430237 476.179871,293.048737 485.394562,301.351013 
	C487.652924,303.385773 489.179047,306.417755 490.529938,309.236572 
	C493.308777,315.035065 492.623199,320.535706 488.208191,325.408600 
	C487.426880,326.270966 486.809814,327.307129 485.942383,328.062714 
	C476.729095,336.088135 475.983307,346.289948 478.341522,357.307373 
	C481.181915,370.577728 481.640656,375.034485 463.853821,380.647827 
	C458.847107,381.857727 456.801697,385.179260 456.226562,389.052063 
	C455.402405,394.601624 455.173828,400.255463 454.952972,405.875092 
	C454.612061,414.549408 450.808044,419.026245 442.174622,419.997589 
	C438.599365,420.399841 434.928711,420.467590 431.343903,420.172089 
	C421.682831,419.375763 414.067383,425.535553 411.065979,436.900330 
	C409.031189,444.605133 405.952942,447.280975 398.073883,447.026031 
	C393.681396,446.883881 389.322388,445.707611 384.948273,444.997406 
	C384.948273,444.997406 385.011383,444.989777 384.940125,444.828186 
	C384.703888,444.442566 384.509949,444.247223 384.287048,444.080627 
	C376.477020,440.262054 373.360992,440.628204 367.546539,446.684448 
	C361.942535,452.521576 355.064514,455.247742 347.172760,455.810669 
	C339.473297,456.359894 333.195404,453.711243 328.160980,446.914398 
	C324.396271,441.463348 319.546692,441.257172 314.426270,442.409210 
	C311.037933,443.171539 307.741028,444.336639 304.396484,445.298065 
	C294.443573,448.159088 290.641174,446.758942 285.355011,438.001190 
	C283.386139,434.739319 282.117249,430.999451 279.847748,427.991730 
	C277.973175,425.507385 275.406830,422.839233 272.598206,421.908203 
	C266.192535,419.784882 259.451355,418.672180 252.844315,417.158325 
	C245.779587,415.539612 244.132385,413.919464 243.003189,406.648712 
	C242.140503,401.093964 241.581909,395.492035 240.888062,389.911072 
z"/>
<path fill="#E95001" opacity="1.000000" stroke="none" 
	d="
M384.985413,445.359070 
	C389.322388,445.707611 393.681396,446.883881 398.073883,447.026031 
	C405.952942,447.280975 409.031189,444.605133 411.065979,436.900330 
	C414.067383,425.535553 421.682831,419.375763 431.343903,420.172089 
	C434.928711,420.467590 438.599365,420.399841 442.174622,419.997589 
	C450.808044,419.026245 454.612061,414.549408 454.952972,405.875092 
	C455.173828,400.255463 455.402405,394.601624 456.226562,389.052063 
	C456.801697,385.179260 458.847107,381.857727 463.607605,380.903412 
	C482.125610,416.383026 500.278107,451.892090 519.039001,488.591248 
	C497.018280,485.016724 476.248779,481.645294 454.844971,478.170898 
	C446.760315,497.308685 438.655487,516.494263 430.078552,536.797363 
	C414.741943,505.795776 399.882263,475.758240 384.985413,445.359070 
z"/>
<path fill="#E95001" opacity="1.000000" stroke="none" 
	d="
M240.616699,390.121063 
	C241.581909,395.492035 242.140503,401.093964 243.003189,406.648712 
	C244.132385,413.919464 245.779587,415.539612 252.844315,417.158325 
	C259.451355,418.672180 266.192535,419.784882 272.598206,421.908203 
	C275.406830,422.839233 277.973175,425.507385 279.847748,427.991730 
	C282.117249,430.999451 283.386139,434.739319 285.355011,438.001190 
	C290.641174,446.758942 294.443573,448.159088 304.396484,445.298065 
	C307.741028,444.336639 311.037933,443.171539 314.426270,442.409210 
	C319.546692,441.257172 324.396271,441.463348 327.870422,446.758118 
	C313.350739,476.202026 298.692261,505.323120 284.023590,534.439087 
	C283.231323,536.011719 282.353821,537.541321 281.112213,539.837769 
	C280.153992,537.633911 279.475616,536.188843 278.889130,534.707397 
	C272.217194,517.852844 265.447998,501.035248 258.987671,484.099854 
	C257.625366,480.528625 255.997086,479.961670 252.370667,480.493896 
	C232.955475,483.343231 213.488052,485.836639 192.976257,488.595978 
	C208.983612,455.389435 224.664459,422.860260 240.616699,390.121063 
z"/>
<path fill="#FFFEFD" opacity="1.000000" stroke="none" 
	d="
M452.025177,226.547852 
	C445.660217,234.682037 439.426605,242.508240 432.798035,250.833893 
	C406.040588,285.112976 379.678162,318.892639 353.085419,352.967407 
	C351.962799,351.743408 351.178986,350.934326 350.445221,350.082184 
	C332.756500,329.539795 315.036682,309.024017 297.406891,288.431183 
	C290.506866,280.371429 283.811066,272.136780 277.007019,263.995026 
	C276.991791,264.008270 276.962036,264.036255 277.338501,263.937073 
	C298.156219,272.713989 318.855560,281.053955 338.920135,290.712585 
	C347.772217,294.973785 353.699799,294.313812 361.394684,288.135681 
	C381.896698,271.674866 403.240295,256.262299 424.249329,240.432983 
	C433.445068,233.573669 442.640778,226.714340 452.038574,219.604950 
	C454.540558,217.872772 456.840454,216.390671 459.549744,214.931580 
	C459.959167,214.954605 460.098145,215.087723 460.098145,215.087708 
	C457.450928,218.805099 454.803711,222.522476 452.025177,226.547852 
z"/>
<path fill="#FFFEFD" opacity="1.000000" stroke="none" 
	d="
M459.891571,214.886139 
	C460.016663,214.619598 460.209351,214.421524 460.402069,214.223480 
	C460.436584,214.454346 460.471100,214.685196 460.301880,215.001892 
	C460.098145,215.087723 459.959167,214.954605 459.891571,214.886139 
z"/>
<path fill="#E95001" opacity="1.000000" stroke="none" 
	d="
M384.321747,444.295288 
	C384.509949,444.247223 384.703888,444.442566 384.944092,444.859741 
	C384.730347,444.954895 384.509399,444.773926 384.321747,444.295288 
z"/>
<path fill="#DDB942" opacity="1.000000" stroke="none" 
	d="
M424.088257,240.095398 
	C403.240295,256.262299 381.896698,271.674866 361.394684,288.135681 
	C353.699799,294.313812 347.772217,294.973785 338.920135,290.712585 
	C318.855560,281.053955 298.156219,272.713989 277.380920,263.719543 
	C276.811401,263.583496 276.575928,263.565704 276.340454,263.547943 
	C276.567719,263.692566 276.794983,263.837158 277.022247,263.981781 
	C283.811066,272.136780 290.506866,280.371429 297.406891,288.431183 
	C315.036682,309.024017 332.756500,329.539795 350.445221,350.082184 
	C351.178986,350.934326 351.962799,351.743408 353.085419,352.967407 
	C379.678162,318.892639 406.040588,285.112976 432.681671,251.150452 
	C440.171265,257.156525 443.423676,265.743744 446.895966,274.163116 
	C452.622742,288.049194 454.924438,302.640015 453.879639,317.507019 
	C452.339905,339.416748 444.640991,359.010895 430.499420,376.125519 
	C414.435211,395.567017 393.850403,407.077026 369.390167,411.601257 
	C350.204346,415.149963 331.423523,412.769409 313.373657,405.173279 
	C286.186554,393.731903 267.228851,374.080902 256.987946,346.618927 
	C247.696655,321.703461 248.516754,296.592804 258.554626,271.846130 
	C263.236816,260.302917 270.018188,250.003418 278.555939,241.179932 
	C294.079651,225.136673 312.982300,214.634995 335.184113,211.111893 
	C358.140106,207.469116 380.391296,210.361160 400.687042,222.093307 
	C409.044708,226.924530 416.216156,233.807861 424.088257,240.095398 
z"/>
<path fill="#FFFEFD" opacity="1.000000" stroke="none" 
	d="
M277.007019,263.995026 
	C276.794983,263.837158 276.567719,263.692566 276.340454,263.547943 
	C276.575928,263.565704 276.811401,263.583496 277.004456,263.818756 
	C276.962036,264.036255 276.991791,264.008270 277.007019,263.995026 
z"/>
</svg>